HIERARCHY
ROOT Hips
{
	OFFSET 0.000000 83.214638 0.000000
	CHANNELS 6 Xposition Yposition Zposition Xrotation Yrotation Zrotation
	JOINT Pelvis
	{
		OFFSET 0.000000 0.000000 0.000000
		CHANNELS 3 Xrotation Yrotation Zrotation
		JOINT LeftUpLeg
		{
			OFFSET 8.479700 -4.795502 -0.379100
			CHANNELS 3 Xrotation Yrotation Zrotation
			JOINT LeftLeg
			{
				OFFSET 0.024144 -32.555107 0.112900
				CHANNELS 3 Xrotation Yrotation Zrotation
				JOINT LeftFoot
				{
					OFFSET -0.024144 -32.638630 -3.012600
					CHANNELS 3 Xrotation Yrotation Zrotation
					JOINT LeftToeBase
					{
						OFFSET 0.970200 -13.225400 11.864200
						CHANNELS 3 Xrotation Yrotation Zrotation
						End Site
						{
							OFFSET 0.000000 12.319262 0.000000
						}
					}
					JOINT LFootTongue
					{
						OFFSET 1.142400 -1.059800 6.665200
						CHANNELS 3 Xrotation Yrotation Zrotation
						End Site
						{
							OFFSET 0.000000 12.319262 0.000000
						}
					}
				}
				JOINT LeftPantLeg
				{
					OFFSET 0.918482 -16.533964 -2.284700
					CHANNELS 3 Xrotation Yrotation Zrotation
					End Site
					{
						OFFSET 0.350399 24.744368 0.000000
					}
				}
			}
		}
		JOINT RightUpLeg
		{
			OFFSET -8.479700 -4.795502 -0.379100
			CHANNELS 3 Xrotation Yrotation Zrotation
			JOINT RightLeg
			{
				OFFSET -0.023144 -32.555092 0.112900
				CHANNELS 3 Xrotation Yrotation Zrotation
				JOINT RightFoot
				{
					OFFSET 0.023144 -32.638641 -3.012700
					CHANNELS 3 Xrotation Yrotation Zrotation
					JOINT RightToeBase
					{
						OFFSET -0.970200 -13.225400 11.864200
						CHANNELS 3 Xrotation Yrotation Zrotation
						End Site
						{
							OFFSET 0.000000 12.319244 0.000000
						}
					}
					JOINT RFootTongue
					{
						OFFSET -1.142200 -1.059800 6.665200
						CHANNELS 3 Xrotation Yrotation Zrotation
						End Site
						{
							OFFSET 0.000000 12.319243 0.000000
						}
					}
				}
				JOINT RightPantLeg
				{
					OFFSET -0.919482 -16.533978 -2.284800
					CHANNELS 3 Xrotation Yrotation Zrotation
					End Site
					{
						OFFSET -0.350400 24.744419 0.000000
					}
				}
			}
		}
	}
	JOINT Spine
	{
		OFFSET 0.000000 7.722000 1.166200
		CHANNELS 3 Xrotation Yrotation Zrotation
		JOINT Spine1
		{
			OFFSET 0.000000 12.024101 0.248800
			CHANNELS 3 Xrotation Yrotation Zrotation
			JOINT Spine2
			{
				OFFSET 0.000000 11.502998 -0.491200
				CHANNELS 3 Xrotation Yrotation Zrotation
				JOINT Neck
				{
					OFFSET 0.000000 18.430702 -3.123100
					CHANNELS 3 Xrotation Yrotation Zrotation
					JOINT Head
					{
						OFFSET 0.000000 9.051102 1.034000
						CHANNELS 3 Xrotation Yrotation Zrotation
						JOINT HairB
						{
							OFFSET 0.208400 24.786102 24.822300
							CHANNELS 3 Xrotation Yrotation Zrotation
							End Site
							{
								OFFSET 0.000000 32.263779 0.000000
							}
						}
						JOINT HairA
						{
							OFFSET -7.081100 24.428299 23.196600
							CHANNELS 3 Xrotation Yrotation Zrotation
							End Site
							{
								OFFSET 0.000000 32.263779 0.000000
							}
						}
						JOINT Hat
						{
							OFFSET 16.728800 15.048294 -15.439601
							CHANNELS 3 Xrotation Yrotation Zrotation
							End Site
							{
								OFFSET 0.000000 32.263779 0.000000
							}
						}
					}
				}
				JOINT LeftShoulder
				{
					OFFSET 6.197800 13.665199 -4.064700
					CHANNELS 3 Xrotation Yrotation Zrotation
					JOINT LeftArm
					{
						OFFSET 7.778100 -0.187103 -1.709300
						CHANNELS 3 Xrotation Yrotation Zrotation
						JOINT LeftForeArm
						{
							OFFSET 22.049376 0.000000 0.000000
							CHANNELS 3 Xrotation Yrotation Zrotation
							JOINT LeftHand
							{
								OFFSET 23.009392 0.000000 0.000000
								CHANNELS 3 Xrotation Yrotation Zrotation
								JOINT LeftHandThumb1
								{
									OFFSET 3.507191 -2.063065 3.133727
									CHANNELS 3 Xrotation Yrotation Zrotation
									JOINT LeftHandThumb2
									{
										OFFSET 3.101337 -1.790558 1.790558
										CHANNELS 3 Xrotation Yrotation Zrotation
										JOINT LeftHandThumb3
										{
											OFFSET 3.058640 -1.765907 1.765906
											CHANNELS 3 Xrotation Yrotation Zrotation
											End Site
											{
												OFFSET -0.415260 3.926476 -0.049563
											}
										}
									}
								}
								JOINT LeftHandIndex1
								{
									OFFSET 11.334419 -0.901459 3.706815
									CHANNELS 3 Xrotation Yrotation Zrotation
									JOINT LeftHandIndex2
									{
										OFFSET 3.283112 0.000000 0.000000
										CHANNELS 3 Xrotation Yrotation Zrotation
										JOINT LeftHandIndex3
										{
											OFFSET 3.323853 0.000000 0.000000
											CHANNELS 3 Xrotation Yrotation Zrotation
											End Site
											{
												OFFSET -1.135597 3.097809 0.402452
											}
										}
									}
								}
								JOINT LeftHandMiddle1
								{
									OFFSET 11.335861 0.000000 0.000000
									CHANNELS 3 Xrotation Yrotation Zrotation
									JOINT LeftHandMiddle2
									{
										OFFSET 3.410492 0.000000 0.000000
										CHANNELS 3 Xrotation Yrotation Zrotation
										JOINT LeftHandMiddle3
										{
											OFFSET 3.312172 0.000000 0.000000
											CHANNELS 3 Xrotation Yrotation Zrotation
											End Site
											{
												OFFSET -1.150200 3.080154 0.400270
											}
										}
									}
								}
								JOINT LeftHandRing1
								{
									OFFSET 11.514786 -0.013176 -3.003090
									CHANNELS 3 Xrotation Yrotation Zrotation
									JOINT LeftHandRing2
									{
										OFFSET 3.053307 0.000000 0.000000
										CHANNELS 3 Xrotation Yrotation Zrotation
										JOINT LeftHandRing3
										{
											OFFSET 3.295807 0.000000 0.000000
											CHANNELS 3 Xrotation Yrotation Zrotation
											End Site
											{
												OFFSET -1.281006 3.013344 0.375733
											}
										}
									}
								}
								JOINT LeftHandPinky1
								{
									OFFSET 10.518692 -0.960396 -5.730441
									CHANNELS 3 Xrotation Yrotation Zrotation
									JOINT LeftHandPinky2
									{
										OFFSET 2.861649 0.000000 0.000000
										CHANNELS 3 Xrotation Yrotation Zrotation
										JOINT LeftHandPinky3
										{
											OFFSET 2.863380 0.000000 0.000000
											CHANNELS 3 Xrotation Yrotation Zrotation
											End Site
											{
												OFFSET -0.843597 2.711159 0.369971
											}
										}
									}
								}
							}
							JOINT LSleeve
							{
								OFFSET 6.676277 -0.344902 -1.011730
								CHANNELS 3 Xrotation Yrotation Zrotation
								End Site
								{
									OFFSET 0.000000 14.885353 0.000000
								}
							}
						}
					}
				}
				JOINT RightShoulder
				{
					OFFSET -6.197800 13.665199 -4.064700
					CHANNELS 3 Xrotation Yrotation Zrotation
					JOINT RightArm
					{
						OFFSET -7.778100 -0.187103 -1.709300
						CHANNELS 3 Xrotation Yrotation Zrotation
						JOINT RightForeArm
						{
							OFFSET -22.049376 0.000000 0.000000
							CHANNELS 3 Xrotation Yrotation Zrotation
							JOINT RightHand
							{
								OFFSET -23.009392 0.000000 0.000000
								CHANNELS 3 Xrotation Yrotation Zrotation
								JOINT RightHandThumb1
								{
									OFFSET -3.507191 -2.063065 3.133727
									CHANNELS 3 Xrotation Yrotation Zrotation
									JOINT RightHandThumb2
									{
										OFFSET -3.101337 -1.790558 1.790558
										CHANNELS 3 Xrotation Yrotation Zrotation
										JOINT RightHandThumb3
										{
											OFFSET -3.058640 -1.765907 1.765906
											CHANNELS 3 Xrotation Yrotation Zrotation
											End Site
											{
												OFFSET 0.415260 3.926476 -0.049563
											}
										}
									}
								}
								JOINT RightHandIndex1
								{
									OFFSET -11.334419 -0.901459 3.706815
									CHANNELS 3 Xrotation Yrotation Zrotation
									JOINT RightHandIndex2
									{
										OFFSET -3.283112 0.000000 0.000000
										CHANNELS 3 Xrotation Yrotation Zrotation
										JOINT RightHandIndex3
										{
											OFFSET -3.323853 0.000000 0.000000
											CHANNELS 3 Xrotation Yrotation Zrotation
											End Site
											{
												OFFSET 1.135597 3.097809 0.402452
											}
										}
									}
								}
								JOINT RightHandMiddle1
								{
									OFFSET -11.335861 0.000000 0.000000
									CHANNELS 3 Xrotation Yrotation Zrotation
									JOINT RightHandMiddle2
									{
										OFFSET -3.410492 0.000000 0.000000
										CHANNELS 3 Xrotation Yrotation Zrotation
										JOINT RightHandMiddle3
										{
											OFFSET -3.312172 0.000000 0.000000
											CHANNELS 3 Xrotation Yrotation Zrotation
											End Site
											{
												OFFSET 1.150200 3.080154 0.400270
											}
										}
									}
								}
								JOINT RightHandRing1
								{
									OFFSET -11.514786 -0.013176 -3.003090
									CHANNELS 3 Xrotation Yrotation Zrotation
									JOINT RightHandRing2
									{
										OFFSET -3.053307 0.000000 0.000000
										CHANNELS 3 Xrotation Yrotation Zrotation
										JOINT RightHandRing3
										{
											OFFSET -3.295807 0.000000 0.000000
											CHANNELS 3 Xrotation Yrotation Zrotation
											End Site
											{
												OFFSET 1.281006 3.013344 0.375733
											}
										}
									}
								}
								JOINT RightHandPinky1
								{
									OFFSET -10.518692 -0.960396 -5.730441
									CHANNELS 3 Xrotation Yrotation Zrotation
									JOINT RightHandPinky2
									{
										OFFSET -2.861649 0.000000 0.000000
										CHANNELS 3 Xrotation Yrotation Zrotation
										JOINT RightHandPinky3
										{
											OFFSET -2.863380 0.000000 0.000000
											CHANNELS 3 Xrotation Yrotation Zrotation
											End Site
											{
												OFFSET 0.843597 2.711159 0.369971
											}
										}
									}
								}
							}
							JOINT RSleeve
							{
								OFFSET -6.676277 -0.344902 -1.011730
								CHANNELS 3 Xrotation Yrotation Zrotation
								End Site
								{
									OFFSET 0.000000 14.885353 0.000000
								}
							}
						}
					}
				}
				JOINT Backpack
				{
					OFFSET 0.000000 -2.471497 36.677502
					CHANNELS 3 Xrotation Yrotation Zrotation
					End Site
					{
						OFFSET 0.000000 20.427315 0.000000
					}
				}
				JOINT Hood
				{
					OFFSET 0.000000 18.754097 -10.431000
					CHANNELS 3 Xrotation Yrotation Zrotation
					JOINT Hood1
					{
						OFFSET 0.000000 -5.011002 -7.685901
						CHANNELS 3 Xrotation Yrotation Zrotation
						End Site
						{
							OFFSET 0.000000 9.175140 0.000000
						}
					}
				}
				JOINT LHoodieString
				{
					OFFSET 5.250500 16.397697 3.089900
					CHANNELS 3 Xrotation Yrotation Zrotation
					JOINT LHoodieString1
					{
						OFFSET 0.257700 -6.364304 3.694600
						CHANNELS 3 Xrotation Yrotation Zrotation
						JOINT LHoodieString2
						{
							OFFSET 0.000000 -9.643799 2.679100
							CHANNELS 3 Xrotation Yrotation Zrotation
							End Site
							{
								OFFSET 0.000000 10.009018 0.000000
							}
						}
					}
				}
				JOINT RHoodieString
				{
					OFFSET -5.250500 16.397697 3.089900
					CHANNELS 3 Xrotation Yrotation Zrotation
					JOINT RHoodieString1
					{
						OFFSET -0.257700 -6.364304 3.694600
						CHANNELS 3 Xrotation Yrotation Zrotation
						JOINT RHoodieString2
						{
							OFFSET 0.000000 -9.643799 2.679100
							CHANNELS 3 Xrotation Yrotation Zrotation
							End Site
							{
								OFFSET 0.000000 10.009018 0.000000
							}
						}
					}
				}
			}
			JOINT LBackpack_Strap
			{
				OFFSET 15.223200 -7.719803 -6.610900
				CHANNELS 3 Xrotation Yrotation Zrotation
				End Site
				{
					OFFSET 0.000000 16.040596 0.000000
				}
			}
			JOINT RBackpack_Strap
			{
				OFFSET -15.223000 -7.719803 -6.610900
				CHANNELS 3 Xrotation Yrotation Zrotation
				End Site
				{
					OFFSET 0.000000 16.040596 0.000000
				}
			}
		}
	}
	JOINT BoyFacialAnim_Joint
	{
		OFFSET 1.000000 -82.208099 -1.550900
		CHANNELS 3 Xrotation Yrotation Zrotation
		End Site
		{
			OFFSET 0.000000 30.012791 0.000000
		}
	}
}
MOTION
Frames: 4
Frame Time: 0.033333
3.759718 77.126190 161.253494 -13.297478 -33.741022 2.679620 -0.000001 -0.000000 -0.000001 -3.957728 12.439400 -10.020876 36.625701 5.781350 -6.341387 -20.209688 0.334400 9.099785 0.000000 0.000000 0.000000 0.000000 0.000000 0.000000 -0.000001 0.000002 -0.000000 -27.295589 17.033542 -5.150737 76.973131 -6.674997 -9.925409 13.809738 -0.559284 6.636590 -0.000002 0.000001 -0.000000 -0.000002 0.000001 -0.000000 -0.000000 -0.000002 0.000002 5.118533 1.027068 -4.286749 13.924743 -0.440779 -1.061738 13.633780 -1.418217 -0.866800 -5.792210 7.866887 -6.512053 -4.590309 -2.470800 7.971600 0.000001 -0.000000 -0.000001 0.000001 -0.000000 -0.000001 0.000001 -0.000000 -0.000001 -37.149570 3.081244 -1.891678 -27.275124 -9.926724 -52.039963 0.000202 -79.382883 0.000195 -94.430145 8.839500 11.329752 17.706919 -13.072805 -3.669296 21.779979 8.292469 10.076766 -0.000000 -0.000001 0.000001 0.765096 5.198992 -20.914456 2.511254 4.806954 -55.147012 -0.000000 0.000001 0.000000 1.321629 5.942045 -33.504660 3.122944 5.178088 -62.167214 0.000002 -0.000001 -0.000002 2.331548 7.039886 -45.067282 3.345233 5.289015 -64.603775 -0.000003 -0.000003 -0.000003 1.838781 6.667243 -37.065384 3.667959 5.429858 -68.057712 -0.000000 0.000004 0.000006 0.000003 0.000001 0.000002 -36.300707 -19.662983 1.219527 -49.977167 63.108428 106.573839 0.007080 88.719363 -0.006912 -49.800275 13.750726 -6.648351 8.445322 -5.064794 11.035105 21.775642 -18.186482 -18.198288 -0.000001 0.000002 -0.000000 0.279319 4.245204 -1.798124 0.185747 -1.303478 16.219377 -0.000001 0.000001 0.000005 0.791517 -5.044425 48.798826 6.118419 -4.422463 108.304957 0.000001 -0.000002 0.000001 -2.833720 -2.200749 51.291125 5.269499 -4.616822 97.563488 -0.000002 -0.000002 0.000005 -3.637956 -4.182960 69.826615 3.773296 -4.572721 79.047630 -0.000003 -0.000001 0.000002 -0.000001 -0.000001 0.000002 0.000002 0.000001 0.000001 0.000002 0.000001 0.000001 0.000002 0.000001 0.000001 0.000002 0.000001 0.000001 0.000002 0.000001 0.000001 -0.000000 -0.000001 0.000000 0.000002 0.000001 0.000001 0.000002 0.000001 0.000001 -0.000000 -0.000001 0.000000 -0.000000 0.000002 -0.000001 -0.000000 0.000002 -0.000001 -0.000001 -0.000000 -0.000001 
3.844345 77.680023 163.648636 -12.838579 -32.544741 2.809741 0.000001 0.000001 0.000001 -0.265594 11.558603 -11.375250 32.480548 5.804721 -6.321025 -20.039603 -0.571099 9.698945 0.000000 0.000000 0.000000 0.000000 0.000000 0.000000 0.000000 0.000001 -0.000000 -28.587711 14.985129 -3.091026 73.466437 -5.901228 -9.905505 10.591095 -0.753009 8.867750 0.000002 -0.000002 0.000002 0.000002 -0.000002 0.000002 -0.000001 0.000001 -0.000001 5.139922 0.965912 -4.353962 13.846200 -0.527145 -1.019995 13.611840 -1.669672 -0.708956 -5.806631 7.599529 -6.625844 -4.168589 -4.353139 9.421385 -0.000000 0.000001 0.000001 -0.000000 0.000001 0.000001 -0.000000 0.000001 0.000001 -37.297508 3.365478 -0.956848 -23.456618 -17.451787 -46.732332 -0.000063 -75.597094 -0.000048 -89.582036 12.301253 2.182168 9.993253 -5.775293 -1.154462 20.638697 3.494990 8.888806 -0.000000 0.000000 -0.000000 -0.327890 1.267688 -13.406400 2.553803 4.836209 -55.653064 0.000001 -0.000000 -0.000004 -0.308222 2.224465 -19.635344 3.543147 5.378127 -66.732717 0.000003 -0.000004 -0.000002 1.599153 6.335445 -37.714040 2.865792 5.034491 -59.278433 -0.000001 0.000000 -0.000002 2.223377 7.292331 -34.803089 3.141958 5.188061 -62.377529 0.000002 -0.000000 0.000003 0.000000 0.000000 -0.000002 -36.297152 -19.693797 1.212082 -48.609357 63.306325 105.400542 0.004717 87.418860 -0.004758 -49.258095 14.115077 -6.796645 8.445309 -5.064781 11.035123 21.775645 -18.186482 -18.198303 -0.000001 0.000004 -0.000001 0.161210 4.101600 -0.767092 0.187507 -1.309506 16.296556 -0.000002 -0.000001 -0.000000 1.353794 -5.538014 49.119746 6.141338 -4.414840 108.602603 0.000005 -0.000001 0.000003 -2.903040 -2.178986 51.544893 5.297320 -4.613067 97.909293 0.000003 -0.000004 0.000003 -3.652712 -4.125095 69.437069 3.798571 -4.577536 79.364640 -0.000000 -0.000001 0.000004 0.000003 0.000008 -0.000003 0.000000 0.000001 0.000000 0.000000 0.000001 0.000000 0.000000 0.000001 0.000000 0.000000 0.000001 0.000000 0.000000 0.000001 0.000001 0.000000 0.000001 0.000000 0.000000 0.000001 0.000000 0.000000 0.000001 0.000001 0.000000 0.000001 0.000000 0.000000 0.000001 -0.000000 0.000000 0.000001 -0.000000 0.000001 0.000001 0.000001 
3.865347 78.206070 166.025070 -12.019958 -31.410107 2.908831 0.000000 -0.000000 0.000001 3.273062 10.816650 -12.492792 27.843700 5.421998 -5.942426 -19.583798 -1.171283 10.230218 0.000000 0.000001 -0.000000 0.000000 0.000001 0.000000 -0.000001 0.000002 -0.000000 -29.329911 12.297650 -1.706426 67.502015 -5.362184 -9.866626 7.364418 -1.139009 11.381741 -0.000001 0.000001 -0.000000 -0.000001 0.000001 -0.000000 0.000001 0.000002 -0.000001 4.923965 0.977219 -4.245513 13.604927 -0.442970 -0.953048 13.439096 -1.739513 -0.516092 -5.678076 7.332801 -6.609046 -3.638698 -5.940990 10.729980 -0.000001 0.000000 0.000000 -0.000001 0.000000 0.000000 -0.000001 0.000000 0.000000 -37.427118 2.708578 1.062124 -18.056479 -24.463625 -42.520957 0.000010 -71.663909 -0.000004 -81.766271 9.635813 3.784390 3.292110 -0.671593 1.853179 19.705922 -0.482212 7.889114 0.000000 0.000001 0.000001 -0.483917 -2.128432 -6.871820 2.810440 5.001316 -58.645500 -0.000000 0.000000 -0.000002 -0.408399 -0.076969 -9.368402 3.823191 5.489550 -69.689158 0.000000 -0.000001 0.000004 0.979532 5.511303 -29.841858 2.399804 4.727658 -53.805939 -0.000001 -0.000001 0.000001 2.568010 8.035939 -31.921521 2.561307 4.841293 -55.741833 0.000001 0.000001 -0.000002 0.000001 0.000003 0.000002 -36.295007 -19.724220 1.202625 -45.666918 63.435034 102.624992 0.001423 86.307438 -0.001366 -48.559059 13.852433 -7.484515 8.445328 -5.064787 11.035114 21.775654 -18.186482 -18.198279 -0.000001 0.000000 0.000001 0.059724 4.129067 0.154414 0.189278 -1.315587 16.374265 -0.000000 -0.000003 -0.000000 1.944850 -6.048919 48.975472 6.183219 -4.400572 109.147488 -0.000000 -0.000002 -0.000002 -2.974722 -2.188562 52.035205 5.321351 -4.609676 98.208312 -0.000000 -0.000000 0.000002 -3.661075 -4.095417 69.240134 3.804701 -4.578663 79.441193 -0.000001 -0.000001 0.000000 0.000001 -0.000002 -0.000003 -0.000000 -0.000002 0.000001 -0.000000 -0.000002 0.000001 -0.000000 -0.000002 0.000001 -0.000000 -0.000002 0.000001 -0.000000 -0.000002 0.000001 -0.000000 0.000002 0.000000 -0.000000 -0.000002 0.000001 -0.000000 -0.000002 0.000001 -0.000000 0.000002 0.000000 -0.000000 -0.000001 0.000000 -0.000000 -0.000001 0.000000 0.000000 -0.000000 0.000001 
3.855076 78.587830 168.360306 -11.136262 -30.602301 3.000673 -0.000000 0.000000 0.000001 6.831938 10.769713 -13.903463 23.127548 4.344648 -4.537637 -19.097610 -1.195734 10.403844 0.000000 0.000001 0.000000 0.000000 0.000001 -0.000000 -0.000001 0.000001 -0.000001 -29.521310 9.468990 -0.614469 59.400393 -5.411109 -9.816360 4.286230 -1.679127 13.336209 -0.000001 0.000001 -0.000001 -0.000001 0.000001 -0.000001 -0.000001 -0.000003 0.000001 4.693312 1.084997 -4.089376 13.312906 -0.161027 -0.968014 13.195002 -1.493943 -0.477999 -5.145686 7.074765 -6.513396 -2.623713 -7.377920 11.959030 -0.000000 0.000001 -0.000000 -0.000000 0.000001 -0.000000 -0.000000 0.000001 -0.000000 -37.514998 1.782378 3.660548 -14.565839 -29.675232 -40.841116 -0.000057 -70.141945 -0.000060 -71.773841 6.407504 8.776781 1.521652 0.485506 2.742199 19.466953 -1.501279 7.630262 0.000000 0.000001 0.000002 0.173153 -2.282699 1.466745 2.002205 4.410251 -48.817718 0.000000 -0.000002 -0.000004 -0.015557 1.804996 -5.345511 2.607919 4.872596 -56.292565 0.000001 -0.000001 -0.000000 0.642910 4.909560 -23.506178 2.094012 4.488683 -50.001096 -0.000001 0.000001 -0.000002 2.727003 8.766092 -28.207725 2.019224 4.425081 -49.038962 -0.000000 0.000001 -0.000004 -0.000002 -0.000001 -0.000002 -36.293839 -19.753114 1.192266 -41.574839 63.224896 98.486178 -0.000028 85.500506 0.000103 -47.771627 12.927373 -8.714616 8.445311 -5.064794 11.035111 21.775635 -18.186482 -18.198305 -0.000000 -0.000001 -0.000002 -0.021583 4.286283 0.874401 0.191079 -1.321689 16.452418 -0.000001 0.000002 0.000004 2.581595 -6.613014 48.516053 6.239255 -4.380771 109.879582 -0.000001 0.000000 0.000001 -3.052319 -2.230331 52.782445 5.342490 -4.606597 98.471472 -0.000000 -0.000001 0.000004 -3.664145 -4.090188 69.210075 3.795208 -4.576889 79.322668 -0.000000 -0.000002 -0.000002 -0.000001 -0.000001 -0.000002 0.000001 0.000001 -0.000000 0.000001 0.000001 -0.000000 0.000001 0.000001 -0.000000 0.000001 0.000001 -0.000000 0.000001 0.000001 -0.000000 0.000002 -0.000001 -0.000000 0.000001 0.000001 -0.000000 0.000001 0.000001 -0.000000 0.000002 -0.000001 -0.000000 -0.000000 0.000002 -0.000000 -0.000000 0.000002 -0.000000 -0.000000 0.000000 0.000001 
